<svg width="24" height="24" viewBox="0 0 24 24" fill="none" xmlns="http://www.w3.org/2000/svg">
<g id="icon_logo_youtube">
<path id="Background" fill-rule="evenodd" clip-rule="evenodd" d="M18.2812 0C21.75 0 24 2.25 24 5.71875V18.2812C24 21.75 21.75 24 18.2812 24H5.71875C2.25 24 0 21.75 0 18.2812V5.71875C0 2.25 2.25 0 5.71875 0H18.2812Z" fill="#E42B28"/>
<path id="Fill 4" fill-rule="evenodd" clip-rule="evenodd" d="M18.3124 5.88821C19.4528 6.07282 20.0724 6.58379 20.4024 7.90983C20.5135 8.35589 20.6667 10.7989 20.6667 11.7312V11.9354C20.6667 12.8678 20.5135 15.3108 20.4024 15.7568C20.0724 17.0828 19.4528 17.5939 18.3124 17.7785C17.6549 17.8754 14.499 18 11.9944 18L12.0057 18C9.50116 18 6.34522 17.8754 5.68767 17.7784C4.54731 17.5938 3.92772 17.0828 3.59768 15.7568C3.48666 15.3108 3.33337 12.8677 3.33337 11.9354V11.7312C3.33337 10.799 3.48666 8.35589 3.59768 7.90987C3.92772 6.58383 4.54731 6.07286 5.68767 5.88824C6.34522 5.79132 9.50116 5.66671 12.0057 5.66671L11.9944 5.66667C14.499 5.66667 17.6549 5.79129 18.3124 5.88821ZM14.8045 11.7466L10.2001 9.33434V14.2758L14.8045 11.7466Z" fill="white"/>
</g>
</svg>
